<svg width="512" height="512" viewBox="0 0 512 512" fill="none" xmlns="http://www.w3.org/2000/svg">
  <rect width="512" height="512" fill="#F8F8F8"/>
  <g transform="translate(64 54)">
    <path d="M191.4 0H44.8L192 258.8L339.2 0H285.8L192 168.2L98.2 0H191.4Z" fill="#000000"/>
    <path d="M160.1 22L192 79.3L223.9 22H297.8L192 209.8L86.2 22H160.1Z" fill="#F8F8F8"/>
    <path d="M73.2 0H0L192 337.5L384 0H310.8L192 213L73.2 0Z" fill="#000000"/>
    <path d="M310.8 0H384L345.5 66.9H272.7L310.8 0Z" fill="#000000"/>
    <path d="M62 298H322V316H62V298Z" fill="none"/>
    <text x="192" y="326" text-anchor="middle" font-family="Arial, Helvetica, sans-serif" font-size="54" font-weight="800" letter-spacing="4" fill="#000000">VEZTRA</text>
    <text x="192" y="379" text-anchor="middle" font-family="Arial, Helvetica, sans-serif" font-size="30" font-weight="500" letter-spacing="9" fill="#FF355D">SOLUTIONS</text>
  </g>
</svg>